<mxfile host="Electron" modified="2023-05-31T22:24:54.170Z" agent="Mozilla/5.0 (Windows NT 10.0; Win64; x64) AppleWebKit/537.36 (KHTML, like Gecko) draw.io/21.2.8 Chrome/112.0.5615.165 Electron/24.2.0 Safari/537.36" etag="ceVCsa8bK7Q5lEDNhb_0" version="21.2.8" type="device">
  <diagram name="Pagina-1" id="AHyJ-n_UTIYTSlR7aWz2">
    <mxGraphModel dx="863" dy="505" grid="1" gridSize="10" guides="1" tooltips="1" connect="1" arrows="1" fold="1" page="1" pageScale="1" pageWidth="827" pageHeight="1169" math="0" shadow="0">
      <root>
        <mxCell id="0" />
        <mxCell id="1" parent="0" />
        <mxCell id="OjWA-4CbQiJTztgsCJEO-2" value="&lt;font style=&quot;font-size: 14px;&quot;&gt;Stato iniziale&lt;br&gt;&lt;/font&gt;" style="ellipse;whiteSpace=wrap;html=1;aspect=fixed;" parent="1" vertex="1">
          <mxGeometry x="374" y="50" width="80" height="80" as="geometry" />
        </mxCell>
        <mxCell id="OjWA-4CbQiJTztgsCJEO-3" value="" style="endArrow=classic;html=1;rounded=0;exitX=0.5;exitY=1;exitDx=0;exitDy=0;entryX=0.5;entryY=0;entryDx=0;entryDy=0;" parent="1" source="OjWA-4CbQiJTztgsCJEO-2" target="kLk9O9ifDEL-sg40KrgF-2" edge="1">
          <mxGeometry width="50" height="50" relative="1" as="geometry">
            <mxPoint x="40" y="160" as="sourcePoint" />
            <mxPoint x="120" y="160" as="targetPoint" />
          </mxGeometry>
        </mxCell>
        <mxCell id="kLk9O9ifDEL-sg40KrgF-1" value="&lt;font style=&quot;font-size: 14px;&quot;&gt;1&lt;br&gt;&lt;/font&gt;" style="ellipse;whiteSpace=wrap;html=1;aspect=fixed;" parent="1" vertex="1">
          <mxGeometry x="240" y="200" width="80" height="80" as="geometry" />
        </mxCell>
        <mxCell id="kLk9O9ifDEL-sg40KrgF-2" value="&lt;font style=&quot;font-size: 14px;&quot;&gt;4&lt;br&gt;&lt;/font&gt;" style="ellipse;whiteSpace=wrap;html=1;aspect=fixed;" parent="1" vertex="1">
          <mxGeometry x="374" y="200" width="80" height="80" as="geometry" />
        </mxCell>
        <mxCell id="kLk9O9ifDEL-sg40KrgF-3" value="&lt;font style=&quot;font-size: 14px;&quot;&gt;5&lt;br&gt;&lt;/font&gt;" style="ellipse;whiteSpace=wrap;html=1;aspect=fixed;" parent="1" vertex="1">
          <mxGeometry x="500" y="200" width="80" height="80" as="geometry" />
        </mxCell>
        <mxCell id="kLk9O9ifDEL-sg40KrgF-5" value="" style="endArrow=classic;html=1;rounded=0;exitX=0;exitY=0.5;exitDx=0;exitDy=0;entryX=0.5;entryY=0;entryDx=0;entryDy=0;" parent="1" source="OjWA-4CbQiJTztgsCJEO-2" target="kLk9O9ifDEL-sg40KrgF-1" edge="1">
          <mxGeometry width="50" height="50" relative="1" as="geometry">
            <mxPoint x="294" y="158.5" as="sourcePoint" />
            <mxPoint x="374" y="158.5" as="targetPoint" />
          </mxGeometry>
        </mxCell>
        <mxCell id="kLk9O9ifDEL-sg40KrgF-6" value="" style="endArrow=classic;html=1;rounded=0;exitX=1;exitY=0.5;exitDx=0;exitDy=0;entryX=0.5;entryY=0;entryDx=0;entryDy=0;" parent="1" source="OjWA-4CbQiJTztgsCJEO-2" target="kLk9O9ifDEL-sg40KrgF-3" edge="1">
          <mxGeometry width="50" height="50" relative="1" as="geometry">
            <mxPoint x="460" y="140" as="sourcePoint" />
            <mxPoint x="540" y="140" as="targetPoint" />
          </mxGeometry>
        </mxCell>
        <mxCell id="T2WMe_DoPWDTsl_bzqBk-1" value="&lt;font style=&quot;font-size: 14px;&quot;&gt;2&lt;br&gt;&lt;/font&gt;" style="ellipse;whiteSpace=wrap;html=1;aspect=fixed;" vertex="1" parent="1">
          <mxGeometry x="160" y="320" width="80" height="80" as="geometry" />
        </mxCell>
        <mxCell id="T2WMe_DoPWDTsl_bzqBk-2" value="&lt;font style=&quot;font-size: 14px;&quot;&gt;3&lt;br&gt;&lt;/font&gt;" style="ellipse;whiteSpace=wrap;html=1;aspect=fixed;" vertex="1" parent="1">
          <mxGeometry x="320" y="320" width="80" height="80" as="geometry" />
        </mxCell>
        <mxCell id="T2WMe_DoPWDTsl_bzqBk-3" value="&lt;font style=&quot;font-size: 14px;&quot;&gt;6&lt;br&gt;&lt;/font&gt;" style="ellipse;whiteSpace=wrap;html=1;aspect=fixed;" vertex="1" parent="1">
          <mxGeometry x="420" y="320" width="80" height="80" as="geometry" />
        </mxCell>
        <mxCell id="T2WMe_DoPWDTsl_bzqBk-4" value="&lt;font style=&quot;font-size: 14px;&quot;&gt;7&lt;br&gt;&lt;/font&gt;" style="ellipse;whiteSpace=wrap;html=1;aspect=fixed;" vertex="1" parent="1">
          <mxGeometry x="580" y="320" width="80" height="80" as="geometry" />
        </mxCell>
        <mxCell id="T2WMe_DoPWDTsl_bzqBk-5" value="" style="endArrow=classic;html=1;rounded=0;exitX=0;exitY=1;exitDx=0;exitDy=0;entryX=1;entryY=0;entryDx=0;entryDy=0;" edge="1" parent="1" source="kLk9O9ifDEL-sg40KrgF-1" target="T2WMe_DoPWDTsl_bzqBk-1">
          <mxGeometry width="50" height="50" relative="1" as="geometry">
            <mxPoint x="410" y="310" as="sourcePoint" />
            <mxPoint x="460" y="260" as="targetPoint" />
          </mxGeometry>
        </mxCell>
        <mxCell id="T2WMe_DoPWDTsl_bzqBk-6" value="" style="endArrow=classic;html=1;rounded=0;exitX=1;exitY=1;exitDx=0;exitDy=0;entryX=0;entryY=0;entryDx=0;entryDy=0;" edge="1" parent="1" source="kLk9O9ifDEL-sg40KrgF-1" target="T2WMe_DoPWDTsl_bzqBk-2">
          <mxGeometry width="50" height="50" relative="1" as="geometry">
            <mxPoint x="262" y="278" as="sourcePoint" />
            <mxPoint x="238" y="342" as="targetPoint" />
          </mxGeometry>
        </mxCell>
        <mxCell id="T2WMe_DoPWDTsl_bzqBk-7" value="" style="endArrow=classic;html=1;rounded=0;exitX=0;exitY=1;exitDx=0;exitDy=0;entryX=1;entryY=0;entryDx=0;entryDy=0;" edge="1" parent="1" source="kLk9O9ifDEL-sg40KrgF-3" target="T2WMe_DoPWDTsl_bzqBk-3">
          <mxGeometry width="50" height="50" relative="1" as="geometry">
            <mxPoint x="272" y="288" as="sourcePoint" />
            <mxPoint x="248" y="352" as="targetPoint" />
          </mxGeometry>
        </mxCell>
        <mxCell id="T2WMe_DoPWDTsl_bzqBk-8" value="" style="endArrow=classic;html=1;rounded=0;exitX=1;exitY=1;exitDx=0;exitDy=0;entryX=0;entryY=0;entryDx=0;entryDy=0;" edge="1" parent="1" source="kLk9O9ifDEL-sg40KrgF-3" target="T2WMe_DoPWDTsl_bzqBk-4">
          <mxGeometry width="50" height="50" relative="1" as="geometry">
            <mxPoint x="522" y="278" as="sourcePoint" />
            <mxPoint x="498" y="342" as="targetPoint" />
          </mxGeometry>
        </mxCell>
      </root>
    </mxGraphModel>
  </diagram>
</mxfile>
